<?xml version="1.0" standalone="no"?>
<!DOCTYPE svg PUBLIC "-//W3C//DTD SVG 20010904//EN"
 "http://www.w3.org/TR/2001/REC-SVG-20010904/DTD/svg10.dtd">
<svg version="1.0" xmlns="http://www.w3.org/2000/svg"
 width="395.000000pt" height="400.000000pt" viewBox="0 0 395.000000 400.000000"
 preserveAspectRatio="xMidYMid meet">

<g transform="translate(0.000000,400.000000) scale(0.100000,-0.100000)"
fill="#000000" stroke="none">
<path d="M1714 3910 c-94 -9 -296 -54 -394 -88 -83 -29 -191 -85 -278 -144
-110 -75 -285 -253 -359 -366 -34 -52 -64 -99 -66 -105 -2 -7 -13 -2 -25 13
l-20 25 -25 -23 c-32 -30 -136 -235 -143 -283 -8 -46 4 -53 49 -29 21 11 37
19 37 18 0 -2 -7 -25 -16 -53 -9 -27 -26 -95 -39 -150 -14 -55 -34 -134 -45
-175 -11 -41 -29 -120 -40 -175 -11 -55 -52 -225 -90 -377 -137 -546 -169
-735 -177 -1049 -6 -217 4 -366 32 -534 17 -93 55 -215 68 -215 5 0 6 8 2 18
-5 9 -8 25 -9 35 0 9 -3 17 -7 17 -7 0 -29 87 -29 113 0 7 13 -16 29 -50 17
-35 28 -72 25 -85 -4 -19 -3 -20 4 -4 8 18 10 17 30 -11 27 -39 27 -39 -3 -99
-25 -50 -35 -134 -15 -134 7 0 8 13 5 34 -5 27 0 48 29 103 28 54 36 81 36
124 1 40 7 65 25 94 14 23 25 55 25 76 0 44 29 84 67 94 50 12 73 34 112 114
48 95 98 151 134 151 19 0 41 -18 89 -72 35 -40 91 -100 126 -134 34 -34 62
-67 62 -72 0 -6 8 -13 18 -16 31 -10 92 -77 92 -101 0 -44 -43 -59 -99 -34
-31 13 -46 28 -58 56 -13 29 -18 33 -21 20 -2 -11 10 -36 29 -60 18 -22 26
-37 18 -32 -59 35 -111 75 -149 116 -25 27 -51 49 -58 49 -7 0 -32 18 -56 40
-46 43 -73 55 -39 17 35 -38 37 -48 11 -43 -12 3 -48 7 -78 10 -86 9 -37 -11
56 -23 44 -5 86 -13 95 -16 14 -5 191 -189 215 -224 7 -9 26 -44 43 -76 17
-34 54 -82 85 -112 31 -29 56 -59 56 -68 0 -8 7 -15 16 -15 18 0 11 35 -14 63
-19 21 -17 21 41 1 39 -13 47 -20 47 -40 0 -20 5 -24 28 -24 27 0 28 2 26 37
-1 21 -5 85 -9 143 l-7 105 -58 55 c-33 32 -61 68 -65 85 -11 44 -18 155 -10
155 4 0 30 -15 58 -34 29 -18 120 -70 202 -115 l150 -81 0 -153 c0 -93 5 -162
12 -177 10 -22 11 -17 9 35 -5 113 21 254 44 240 6 -3 10 1 10 9 0 9 5 16 10
16 6 0 10 -7 10 -16 0 -8 4 -13 9 -10 5 4 11 1 13 -6 4 -10 11 -10 34 1 23 11
25 15 12 18 -10 3 -18 9 -18 15 0 6 10 8 23 4 12 -3 25 -6 30 -6 4 0 7 -8 8
-17 0 -11 3 -13 6 -5 2 6 9 10 14 6 5 -3 9 -1 9 5 0 13 -20 25 -50 29 -34 5
-35 9 -4 15 37 7 84 -39 84 -82 0 -47 18 -37 22 11 3 40 5 43 43 53 22 5 50
16 63 23 35 20 26 4 -10 -18 -21 -13 -27 -20 -16 -20 9 0 19 4 22 8 4 7 99 8
116 2 3 -1 9 -2 14 -1 5 1 5 -6 1 -16 -33 -80 -82 -299 -70 -312 11 -10 22 21
29 75 8 70 60 232 98 309 17 33 64 112 106 175 41 63 112 171 157 240 72 110
167 267 247 410 14 25 49 88 79 140 118 206 274 557 239 535 -6 -4 -10 -13
-10 -20 0 -22 -105 -258 -169 -380 -63 -119 -117 -212 -106 -180 166 451 242
804 246 1140 2 148 -25 450 -47 540 -37 149 -94 272 -179 390 -32 44 -58 86
-58 93 0 6 -6 12 -14 12 -7 0 -13 4 -13 10 0 5 6 7 14 4 8 -3 17 0 21 7 6 9 0
10 -21 6 -15 -3 -38 -1 -51 4 -29 11 -32 -10 -3 -31 24 -17 25 -42 4 -75 -10
-15 -12 -25 -5 -25 6 0 11 -5 11 -11 0 -6 9 -22 20 -36 24 -30 27 -68 6 -60
-18 7 -16 -1 35 -110 89 -188 146 -421 164 -663 2 -25 9 -79 15 -120 24 -147
2 -561 -38 -720 -9 -37 -81 -244 -102 -295 l-13 -30 -7 35 c-4 19 -11 57 -15
84 -4 28 -10 44 -14 37 -5 -7 -31 20 -73 76 -36 49 -75 97 -85 108 -53 56
-283 403 -283 427 0 4 10 9 23 9 17 1 16 3 -8 8 -26 5 -33 15 -57 81 -80 216
-87 324 -50 755 30 348 41 649 25 671 -9 13 -12 -25 -12 -177 1 -194 -4 -258
-41 -589 -31 -273 -49 -402 -59 -414 -4 -6 -11 -40 -15 -76 -4 -36 -15 -153
-26 -260 -11 -107 -22 -224 -26 -260 -4 -41 -12 -70 -22 -77 -10 -8 -11 -13
-4 -13 7 0 12 -12 12 -27 l0 -28 13 25 c9 18 33 31 90 51 89 31 102 39 61 39
-43 0 -104 -12 -100 -19 2 -3 -7 -7 -20 -7 -13 -1 -24 1 -24 5 0 3 24 147 53
320 l53 315 28 -100 c16 -54 38 -124 51 -155 l22 -56 -74 -33 c-71 -32 -91
-46 -80 -57 3 -2 18 5 34 16 18 13 48 23 83 25 l55 5 60 -97 c63 -103 182
-269 209 -292 10 -7 22 -23 28 -34 7 -14 0 -10 -22 11 -18 18 -58 44 -89 59
-31 15 -69 33 -85 41 -17 8 -32 10 -35 5 -3 -5 -33 -12 -66 -16 -80 -9 -96
-10 -125 -1 -24 6 -24 6 -6 -9 11 -9 18 -17 15 -19 -2 -1 -17 -9 -32 -17 -16
-8 -24 -16 -18 -18 6 -2 24 3 41 11 39 20 38 11 -5 -33 -30 -31 -74 -110 -60
-110 3 0 22 18 42 41 38 42 100 82 143 93 21 6 22 5 8 -4 -10 -6 -23 -20 -29
-31 -10 -19 -9 -20 11 -9 26 14 28 12 35 -26 7 -37 -26 -94 -55 -94 -11 0 -20
7 -20 15 0 34 -19 11 -26 -30 -16 -112 12 -206 79 -259 38 -30 85 -37 138 -21
35 11 9 25 -36 18 -54 -7 -95 15 -95 52 0 49 88 85 123 50 8 -8 17 -11 21 -8
3 4 6 -1 6 -11 0 -9 8 -20 18 -23 9 -4 22 -13 28 -21 9 -12 16 -9 39 22 36 47
54 100 55 158 0 99 38 54 47 -58 4 -45 1 -69 -12 -93 -25 -50 -10 -48 19 2 40
68 43 128 12 210 -29 77 -22 78 33 4 64 -88 75 -115 75 -197 1 -70 -2 -81 -46
-169 -71 -139 -166 -298 -276 -460 -97 -144 -97 -144 -172 -182 -111 -57 -367
-138 -511 -163 -25 -4 -52 1 -96 19 -100 40 -308 153 -366 198 -33 26 -37 33
-37 75 0 64 -17 120 -40 132 -10 5 -38 9 -62 9 l-43 -1 53 -10 c63 -11 72 -27
72 -119 0 -62 -26 -131 -53 -142 -25 -9 -91 29 -140 82 -50 53 -53 71 -11 71
33 0 73 -21 108 -59 32 -33 46 -39 46 -18 -1 20 -105 87 -135 87 -8 0 -15 6
-15 13 0 18 38 77 50 77 5 0 10 4 10 10 0 11 -32 1 -41 -12 -11 -16 -101 96
-136 168 -40 85 -52 152 -54 304 -1 87 -4 105 -10 75 -5 -27 -6 -13 -3 45 2
47 -3 153 -12 235 -31 286 -23 400 37 532 10 23 19 48 19 55 0 9 3 9 11 -2 8
-12 9 -10 4 8 -4 14 -2 22 5 22 7 0 10 7 7 15 -4 8 -1 17 5 21 6 4 8 3 4 -4
-3 -6 -2 -13 4 -17 5 -3 10 -1 10 4 0 6 5 11 10 11 6 0 10 -12 10 -26 0 -22
-2 -25 -15 -14 -8 7 -15 9 -15 5 0 -4 8 -13 17 -20 15 -12 15 -15 -10 -45 -33
-39 -36 -62 -3 -31 l23 22 7 -79 c3 -43 15 -109 27 -147 28 -96 28 -99 0 -103
-16 -3 -20 -6 -12 -11 10 -6 9 -20 -5 -60 -22 -69 -16 -180 15 -239 28 -54 36
-49 20 12 -37 147 37 306 141 306 31 0 32 -1 18 -17 -29 -34 -32 -46 -11 -34
27 14 43 -3 43 -45 0 -75 -45 -114 -61 -54 -13 53 -22 -50 -10 -118 26 -141
110 -237 177 -201 35 18 29 29 -11 22 -41 -7 -65 9 -65 42 0 29 29 63 55 66
36 3 42 -1 55 -31 7 -17 17 -29 23 -27 18 6 38 80 39 145 2 59 3 62 15 40 13
-21 14 -20 8 17 -4 22 -8 52 -8 66 -1 14 -11 38 -22 53 -35 48 -135 125 -178
138 -23 6 -51 19 -61 27 -18 15 -19 15 -13 -1 5 -14 1 -18 -16 -18 -12 0 -33
-8 -46 -17 l-24 -16 6 79 c6 75 32 195 56 258 11 28 13 29 68 22 31 -4 75 -11
98 -17 l42 -11 12 -84 c13 -92 45 -208 67 -239 22 -31 16 -41 -9 -17 -42 40
-50 23 -11 -20 22 -24 50 -56 62 -73 21 -27 22 -28 16 -6 -4 16 -3 21 5 17 16
-10 2 23 -25 60 -66 87 -93 213 -101 469 -8 255 20 483 81 678 17 53 6 56 -15
5 -7 -18 -19 -37 -27 -41 -9 -6 -11 -18 -8 -33 7 -28 -7 -88 -36 -151 -21 -47
-33 -58 -18 -18 10 26 4 55 -11 55 -24 0 -189 -446 -189 -512 0 -12 -24 -30
-70 -53 l-70 -35 0 37 c0 116 54 358 120 543 21 61 37 110 34 110 -14 0 -94
-226 -120 -343 -9 -38 -31 -97 -48 -131 -101 -191 -215 -533 -248 -746 l-13
-85 -3 54 c-3 52 12 223 25 286 3 17 3 27 -1 24 -15 -14 -36 -190 -36 -303 0
-107 -2 -117 -16 -105 -24 20 -60 98 -78 171 -86 346 -9 904 171 1238 112 208
343 473 526 602 70 50 212 128 262 144 11 3 16 8 10 10 -26 10 -206 -81 -300
-151 -103 -77 -267 -246 -353 -363 -21 -27 -47 -62 -60 -78 l-23 -29 22 40
c72 130 204 300 300 388 66 60 72 76 10 30 -157 -119 -332 -385 -456 -693 -21
-52 -42 -99 -46 -105 -17 -25 -80 -270 -95 -370 -22 -154 -23 -161 -24 -345
-2 -265 45 -595 110 -769 30 -83 94 -219 111 -235 20 -21 8 18 -19 63 -50 82
-109 275 -137 446 -19 113 -18 118 4 73 11 -22 17 -51 15 -75 -2 -21 0 -31 4
-23 8 18 19 19 50 2 29 -16 42 -8 42 26 0 15 7 63 16 107 8 44 22 116 30 160
9 44 18 82 21 85 3 3 3 -9 0 -26 -3 -17 -1 -36 4 -41 6 -6 9 -37 7 -69 -3 -50
-6 -60 -25 -69 -17 -7 -23 -18 -22 -40 l1 -30 13 30 c18 38 18 41 16 -160 -1
-93 2 -183 8 -200 7 -22 10 11 10 125 1 85 5 161 9 168 5 7 9 -59 9 -145 0
-240 42 -452 111 -562 l16 -26 -29 25 c-16 14 -35 32 -42 40 -7 8 -13 11 -13
6 0 -5 20 -34 45 -64 25 -30 42 -59 38 -65 -3 -5 -1 -7 5 -3 14 9 54 -48 46
-68 -3 -9 -11 -16 -18 -15 -6 0 -56 54 -111 121 -135 163 -214 248 -230 248
-8 0 -18 6 -22 12 -28 45 -83 46 -83 3 0 -35 33 -95 122 -219 l77 -108 -48
-91 c-38 -72 -55 -94 -80 -105 -31 -12 -32 -12 -46 22 -19 45 -19 59 0 26 22
-39 18 -16 -15 76 -16 47 -38 126 -47 177 -9 51 -19 84 -21 75 -4 -23 45 -291
64 -345 14 -40 14 -42 -10 -66 -17 -17 -27 -41 -32 -76 -3 -28 -10 -49 -14
-46 -10 6 -48 147 -61 223 -5 31 -14 140 -19 242 -10 183 -3 326 30 640 13
132 23 232 24 252 0 10 4 14 8 10 4 -4 3 -38 -2 -77 -10 -84 -15 -218 -11
-300 3 -43 7 -16 17 100 15 195 21 247 34 315 5 29 10 55 10 59 0 3 5 -1 10
-9 8 -12 10 -9 10 11 0 30 -21 44 -39 26 -6 -6 -11 -30 -11 -53 0 -24 -5 -46
-11 -50 -9 -5 -10 9 -4 52 4 32 9 61 11 63 2 2 15 4 29 4 29 0 33 22 10 53
-20 26 -19 45 3 38 10 -4 13 -3 6 3 -22 16 -36 55 -29 81 4 15 13 69 21 120 7
52 17 99 21 105 4 6 8 20 9 32 8 74 32 176 97 413 7 24 16 40 21 35 5 -5 6 0
3 10 -4 10 1 35 10 55 9 20 15 45 14 56 -2 11 2 15 8 12 7 -5 9 3 5 24 -4 16
-2 30 3 30 5 0 14 20 21 44 29 110 142 304 246 421 129 146 245 238 400 315
66 33 126 60 135 60 9 -1 -4 -12 -29 -25 -54 -29 -48 -32 13 -6 94 40 194 56
352 55 113 -1 163 -6 203 -19 29 -10 55 -21 58 -26 7 -12 -3 -11 -27 1 -11 7
-19 7 -19 1 0 -5 6 -12 13 -15 6 -4 2 -4 -11 -2 -12 2 -20 0 -17 -4 3 -4 -16
-21 -42 -36 -88 -51 -157 -106 -241 -192 -45 -47 -81 -87 -79 -89 2 -1 45 37
95 87 138 135 281 222 381 234 42 4 91 -9 91 -25 0 -4 9 -5 19 -2 20 5 141
-53 141 -68 0 -5 14 -16 30 -24 17 -9 28 -20 25 -24 -6 -10 28 -9 35 1 3 4 12
3 20 -3 13 -8 13 -10 0 -20 -12 -8 -9 -9 12 -5 14 3 28 2 30 -3 2 -5 19 -18
38 -30 32 -20 33 -21 8 -15 -39 9 -35 0 8 -21 30 -14 38 -15 45 -4 5 8 9 10 9
4 0 -5 24 -10 53 -10 28 0 54 -3 57 -6 3 -4 20 -4 38 -2 30 5 32 8 32 44 0 28
4 39 15 39 8 0 15 7 15 15 0 18 -2 18 -35 3 -19 -9 -25 -19 -25 -45 0 -32 -1
-33 -40 -33 -22 0 -40 4 -40 9 0 5 -8 7 -19 4 -30 -8 -102 22 -182 75 -41 27
-112 70 -159 97 -47 26 -87 51 -90 56 -9 13 -110 23 -110 10 0 -6 -10 -10 -22
-10 -14 1 -17 3 -8 5 9 3 21 14 28 25 10 16 10 20 -2 25 -9 3 -21 4 -28 1 -7
-3 -2 -6 12 -8 15 -1 6 -4 -20 -8 -28 -4 -55 -1 -72 7 -58 28 -280 59 -240 33
8 -5 -27 -10 -85 -14 -54 -3 -122 -13 -151 -22 -30 -9 -56 -14 -58 -12 -6 6
126 41 232 62 104 21 304 31 469 25 l130 -5 -50 -18 c-27 -11 -65 -21 -82 -24
-18 -3 -33 -9 -33 -15 0 -5 10 -7 23 -3 21 6 21 5 -2 -8 -24 -15 -24 -15 18
-22 28 -5 63 -1 104 9 34 9 100 20 147 25 84 8 84 8 23 10 -34 0 -96 -4 -139
-10 -53 -7 -80 -7 -87 0 -17 17 40 33 134 39 301 16 713 -214 959 -538 126
-166 168 -241 229 -414 54 -153 88 -327 116 -604 4 -34 11 -65 16 -68 5 -3 8
-15 8 -27 -1 -17 -2 -18 -6 -4 -2 9 -9 17 -14 17 -6 0 -10 -83 -9 -217 0 -120
-2 -231 -5 -248 -2 -16 -7 -151 -11 -300 -6 -250 -5 -279 15 -395 28 -158 123
-438 204 -600 52 -101 141 -260 144 -256 2 2 -14 39 -35 82 -216 437 -295 673
-306 914 l-6 115 20 -45 c41 -96 114 -220 171 -289 15 -19 25 -39 22 -44 -4
-6 0 -8 10 -4 10 3 17 3 17 -2 0 -14 147 -151 162 -151 21 0 4 36 -41 88 -72
84 -129 174 -188 294 -94 193 -125 332 -143 646 -11 186 -9 247 6 166 13 -76
64 -261 99 -362 41 -119 98 -237 198 -410 54 -92 73 -118 75 -102 2 12 -1 27
-7 33 -6 6 -11 16 -11 22 0 5 5 3 10 -5 8 -13 10 -12 10 3 0 9 -14 43 -31 75
-17 31 -46 93 -64 137 -19 44 -45 103 -58 130 -29 61 -62 156 -115 335 -59
200 -84 314 -148 690 -53 314 -116 501 -222 665 -83 128 -205 278 -278 341
-246 212 -483 324 -744 353 -136 15 -469 21 -576 11z m383 -86 c-3 -3 -12 -4
-19 -1 -8 3 -5 6 6 6 11 1 17 -2 13 -5z m-137 -18 c0 -11 -19 -15 -25 -6 -3 5
1 10 9 10 9 0 16 -2 16 -4z m576 -413 c-10 -10 -19 5 -10 18 6 11 8 11 12 0 2
-7 1 -15 -2 -18z m55 0 c13 -16 12 -17 -3 -4 -17 13 -22 21 -14 21 2 0 10 -8
17 -17z m-15 -32 c-4 -5 -1 -11 4 -13 7 -2 6 -10 -3 -21 -12 -17 -13 -16 -11
10 3 34 3 33 10 33 3 0 3 -4 0 -9z m64 -41 c6 -11 8 -20 6 -20 -3 0 -10 9 -16
20 -6 11 -8 20 -6 20 3 0 10 -9 16 -20z m-36 -6 c4 -10 2 -13 -6 -8 -7 5 -9 2
-5 -9 3 -8 9 -32 13 -53 5 -29 4 -35 -6 -29 -10 6 -12 4 -7 -9 4 -10 7 -25 7
-34 1 -10 9 -2 20 18 11 19 19 29 20 22 0 -7 5 -10 10 -7 10 6 30 -34 30 -60
0 -8 -11 -17 -25 -21 -15 -4 -25 -13 -24 -23 0 -10 2 -11 6 -3 8 20 26 14 20
-8 -3 -10 2 -25 10 -31 9 -8 10 -14 3 -19 -6 -4 -8 -14 -4 -24 5 -12 9 -14 14
-6 5 8 11 1 17 -17 8 -22 7 -34 -3 -47 -12 -17 -13 -16 -19 10 -4 16 -17 54
-31 85 -13 31 -24 60 -24 64 0 4 -16 40 -35 80 -29 58 -34 77 -26 96 10 24 10
24 10 -5 1 -36 11 -29 15 10 5 42 6 44 10 44 2 0 7 -7 10 -16z m100 -113 c24
-49 42 -92 39 -95 -3 -3 -1 -11 4 -18 15 -18 55 -167 49 -181 -2 -7 -5 -5 -5
5 -1 9 -13 54 -28 100 -15 46 -27 89 -26 96 0 6 -3 12 -8 12 -5 0 -9 5 -9 11
0 10 -29 78 -56 132 -8 15 -12 27 -9 27 3 0 25 -40 49 -89z m-64 36 c0 -5 -7
-4 -15 3 -8 7 -15 20 -15 29 1 13 3 13 15 -3 8 -11 15 -24 15 -29z m60 -143
c0 -8 7 -26 16 -39 9 -13 13 -29 9 -35 -3 -5 -2 -10 2 -10 13 0 80 -234 81
-280 1 -8 5 -33 11 -55 15 -59 14 -385 -1 -385 -8 0 -9 -3 -2 -10 6 -6 7 -33
3 -67 -7 -64 -31 -227 -33 -230 0 -1 -1 102 0 227 0 126 -3 227 -8 224 -4 -3
-8 13 -8 35 0 23 -8 83 -17 133 -9 51 -16 105 -15 121 1 15 -3 27 -8 27 -6 0
-10 5 -10 10 0 18 27 10 43 -12 12 -17 16 -19 16 -7 1 21 -35 53 -48 44 -7 -4
-11 5 -11 24 0 17 5 31 10 31 6 0 10 7 10 15 0 20 -16 19 -24 -1 -13 -34 -16
-5 -4 34 l13 41 17 -42 18 -42 -6 40 c-11 67 -26 74 -50 23 l-15 -33 7 35 c7
41 22 62 36 53 6 -3 8 0 6 8 -3 8 -11 13 -17 12 -6 -2 -12 5 -13 15 -1 9 -2
24 -3 32 -1 8 -6 25 -13 37 -15 26 -16 57 -2 48 6 -3 10 -13 10 -21z m-2214
-26 c-9 -12 -16 -19 -16 -15 0 11 24 47 28 42 2 -2 -3 -14 -12 -27z m2321
-210 c-3 -8 -6 -5 -6 6 -1 11 2 17 5 13 3 -3 4 -12 1 -19z m-1681 -145 c-3
-25 -9 -49 -14 -52 -5 -3 -21 -37 -37 -76 -15 -38 -35 -88 -45 -110 -9 -22
-25 -61 -35 -88 -10 -26 -20 -45 -22 -43 -7 6 70 223 106 299 16 35 33 75 36
90 11 42 17 32 11 -20z m22 -153 c-5 -63 -7 -170 -5 -238 5 -122 5 -123 -16
-116 -46 15 -94 24 -129 24 -21 0 -38 5 -38 10 0 17 58 12 150 -14 23 -6 23
-6 -3 9 -16 9 -53 19 -83 22 -30 3 -54 6 -54 7 0 11 96 247 119 293 17 34 31
65 31 68 0 7 34 54 37 51 1 0 -3 -53 -9 -116z m-371 -272 c-3 -7 -5 -2 -5 12
0 14 2 19 5 13 2 -7 2 -19 0 -25z m143 -80 c0 -7 -9 -49 -20 -93 -11 -44 -23
-122 -27 -173 -7 -106 -18 -114 -47 -31 -14 38 -19 84 -20 159 l-1 104 40 23
c44 25 75 30 75 11z m2657 -55 c-3 -10 -5 -2 -5 17 0 19 2 27 5 18 2 -10 2
-26 0 -35z m32 -129 c11 -54 27 -116 35 -136 9 -21 16 -51 16 -67 0 -16 4 -31
10 -33 5 -1 7 -14 3 -27 -5 -21 -7 -20 -18 13 -7 20 -11 46 -8 56 3 11 1 26
-4 33 -21 26 -48 129 -59 222 -9 79 4 48 25 -61z m-3301 -54 c-4 -41 -3 -48 8
-39 9 7 14 8 14 1 0 -9 -30 -26 -35 -20 -5 5 7 108 13 108 2 0 2 -23 0 -50z
m-37 -71 c-29 -258 -41 -348 -55 -394 -50 -171 -142 -747 -107 -670 5 11 10
38 10 60 2 91 86 553 99 541 2 -3 -1 -74 -8 -158 -13 -161 -8 -536 9 -638 16
-94 40 -193 58 -233 16 -36 16 -40 0 -67 -10 -16 -17 -49 -17 -77 l0 -48 -21
30 c-81 120 -126 288 -130 490 -1 54 -3 64 -10 45 -14 -40 -1 319 16 460 9 69
29 190 45 270 32 158 113 490 118 485 2 -2 -1 -45 -7 -96z m3421 -164 c3 -13
1 -22 -3 -19 -5 3 -9 0 -9 -7 0 -7 -2 -10 -5 -7 -6 5 4 58 10 58 1 0 5 -11 7
-25z m-91 -308 c11 -45 33 -113 49 -152 59 -149 75 -177 197 -355 33 -49 -91
93 -139 158 -51 70 -134 229 -142 272 -3 14 -10 41 -16 60 -7 23 -8 81 -4 175
l8 140 13 -108 c7 -60 22 -145 34 -190z m119 224 c5 -11 12 -28 13 -38 5 -23
22 -63 92 -218 10 -22 18 -43 17 -47 -1 -5 3 -8 8 -8 6 0 10 -5 10 -11 0 -6
14 -39 30 -73 51 -103 -2 -23 -74 112 -37 68 -65 131 -62 139 3 8 2 12 -3 9
-13 -9 -53 97 -45 119 5 13 4 16 -4 11 -7 -4 -12 -1 -12 8 0 22 17 20 30 -3z
m-3250 -122 c0 -6 -4 -7 -10 -4 -5 3 -10 11 -10 16 0 6 5 7 10 4 6 -3 10 -11
10 -16z m688 9 c-6 -18 -28 -21 -28 -4 0 9 7 16 16 16 9 0 14 -5 12 -12z
m1097 -128 c-5 -8 -11 -8 -17 -2 -6 6 -7 16 -3 22 5 8 11 8 17 2 6 -6 7 -16 3
-22z m-1405 -662 c0 -18 -17 -7 -29 19 -13 28 -13 28 8 9 12 -11 21 -23 21
-28z m-753 -20 c-3 -8 -6 -5 -6 6 -1 11 2 17 5 13 3 -3 4 -12 1 -19z m950
-222 c1 -24 6 -54 13 -65 16 -32 3 -25 -38 18 -36 38 -37 40 -16 45 13 4 26
15 29 26 3 11 7 20 8 20 1 0 3 -20 4 -44z m-930 2 c-3 -7 -5 -2 -5 12 0 14 2
19 5 13 2 -7 2 -19 0 -25z m10 -50 c-3 -7 -5 -2 -5 12 0 14 2 19 5 13 2 -7 2
-19 0 -25z m1938 12 c-3 -5 -12 -10 -18 -10 -7 0 -6 4 3 10 19 12 23 12 15 0z
m-58 -55 c0 -8 -4 -12 -9 -9 -5 3 -6 10 -3 15 9 13 12 11 12 -6z m43 1 c0 -2
-7 -6 -15 -10 -8 -3 -15 -1 -15 4 0 6 7 10 15 10 8 0 15 -2 15 -4z m-24 -58
c-18 -26 -22 -17 -5 14 6 11 13 17 16 15 3 -3 -2 -16 -11 -29z m-463 -25 c-7
-2 -19 -2 -25 0 -7 3 -2 5 12 5 14 0 19 -2 13 -5z m50 0 c-7 -2 -19 -2 -25 0
-7 3 -2 5 12 5 14 0 19 -2 13 -5z"/>
<path d="M2622 3176 c-5 -12 -6 -30 -1 -41 4 -11 8 -14 8 -7 1 7 6 10 12 6 6
-3 15 0 20 7 12 20 11 31 -3 23 -7 -5 -9 -1 -6 13 7 27 -18 26 -30 -1z"/>
<path d="M2740 2816 c0 -9 5 -16 10 -16 6 0 10 4 10 9 0 6 -4 13 -10 16 -5 3
-10 -1 -10 -9z"/>
<path d="M2748 2695 c2 -14 8 -28 13 -31 10 -6 11 2 3 34 -9 30 -22 28 -16 -3z"/>
<path d="M2771 2704 c0 -11 3 -14 6 -6 3 7 2 16 -1 19 -3 4 -6 -2 -5 -13z"/>
<path d="M2784 2678 c-10 -34 -13 -118 -3 -118 5 0 9 16 9 35 0 19 5 35 10 35
16 0 12 -97 -5 -114 -20 -19 -21 -43 -1 -27 11 9 13 2 10 -41 l-3 -53 9 45 c5
25 9 80 9 123 1 61 -2 77 -14 77 -11 0 -12 5 -5 25 5 14 5 27 0 30 -5 3 -12
-5 -16 -17z"/>
<path d="M2790 2336 c0 -9 5 -16 10 -16 6 0 10 4 10 9 0 6 -4 13 -10 16 -5 3
-10 -1 -10 -9z"/>
<path d="M3561 1454 c0 -11 3 -14 6 -6 3 7 2 16 -1 19 -3 4 -6 -2 -5 -13z"/>
<path d="M2400 3838 c0 -5 18 -8 40 -8 22 0 40 2 40 4 0 2 -18 6 -40 8 -22 2
-40 0 -40 -4z"/>
<path d="M2165 3790 c-3 -5 1 -10 10 -10 9 0 13 5 10 10 -3 6 -8 10 -10 10 -2
0 -7 -4 -10 -10z"/>
<path d="M2218 3773 c7 -3 16 -2 19 1 4 3 -2 6 -13 5 -11 0 -14 -3 -6 -6z"/>
<path d="M2059 3717 c7 -7 14 -8 21 -1 6 6 2 10 -12 11 -16 2 -18 -1 -9 -10z"/>
<path d="M2103 3678 c1 -7 -4 -12 -12 -13 -8 0 -16 -6 -18 -12 -5 -15 13 -17
22 -3 4 7 13 6 26 -1 29 -15 34 -4 10 20 -24 24 -32 26 -28 9z"/>
<path d="M2720 3640 c0 -5 4 -10 9 -10 6 0 13 5 16 10 3 6 -1 10 -9 10 -9 0
-16 -4 -16 -10z"/>
<path d="M2086 3614 c-25 -24 -20 -63 8 -74 13 -5 28 -15 33 -23 7 -13 10 -13
21 -1 11 12 9 14 -8 14 -27 0 -26 27 2 36 l23 7 -23 8 c-27 10 -29 29 -2 29
11 0 20 5 20 10 0 16 -57 12 -74 -6z m34 -38 c0 -8 -7 -17 -16 -20 -23 -9 -24
-8 -24 14 0 13 7 20 20 20 11 0 20 -6 20 -14z"/>
<path d="M2180 3615 c7 -8 20 -15 28 -15 13 0 12 3 -4 15 -25 19 -40 19 -24 0z"/>
<path d="M2730 3615 c-13 -16 -8 -18 27 -9 13 4 20 10 17 15 -8 14 -30 11 -44
-6z"/>
<path d="M2817 3614 c-3 -3 -3 -12 0 -20 3 -8 0 -14 -6 -14 -6 0 -11 -6 -11
-13 0 -10 14 -13 51 -11 51 2 83 14 38 14 -13 0 -33 11 -45 25 -11 13 -24 22
-27 19z"/>
<path d="M2290 3603 c0 -5 8 -17 17 -28 14 -18 15 -18 9 -2 -3 10 -6 23 -6 28
0 5 -4 9 -10 9 -5 0 -10 -3 -10 -7z"/>
<path d="M2887 3538 c-3 -10 6 -13 34 -13 30 0 35 2 27 13 -9 10 -13 10 -19 1
-6 -10 -11 -10 -22 -1 -12 10 -16 10 -20 0z"/>
<path d="M2241 3514 c0 -11 3 -14 6 -6 3 7 2 16 -1 19 -3 4 -6 -2 -5 -13z"/>
<path d="M2414 3514 c9 -8 16 -20 16 -25 0 -5 5 -9 10 -9 16 0 11 37 -6 44
-28 11 -36 6 -20 -10z"/>
<path d="M2100 3502 c0 -14 6 -22 16 -22 14 0 15 3 3 18 -7 9 -15 19 -16 21
-2 2 -3 -5 -3 -17z"/>
<path d="M2720 3493 l-1 -28 -20 24 -20 24 -15 -22 c-17 -24 -36 -20 -28 7 4
12 3 13 -3 4 -5 -7 -17 -10 -25 -7 -25 10 -33 -27 -9 -46 11 -9 17 -20 13 -24
-4 -3 -1 -5 6 -3 8 2 27 -22 46 -57 18 -34 38 -59 45 -57 8 2 11 -3 8 -13 -4
-10 0 -15 11 -16 9 0 12 -3 6 -5 -7 -3 -5 -18 9 -45 11 -22 22 -38 24 -35 2 2
-3 18 -12 35 -14 27 -14 31 0 31 8 0 15 -6 15 -12 1 -21 39 -60 52 -55 10 4
10 6 1 6 -8 1 -13 16 -13 41 0 38 1 40 31 40 31 0 31 -1 27 -45 -2 -25 0 -45
4 -45 5 0 8 -9 8 -20 0 -11 4 -20 8 -20 19 0 21 15 6 38 -15 23 -15 24 5 17
12 -4 21 -2 21 4 0 6 -4 11 -10 11 -15 0 -32 40 -23 53 5 7 9 24 8 40 -1 27
-1 27 19 8 16 -17 17 -23 6 -35 -10 -13 -10 -16 3 -16 9 0 19 -5 23 -12 5 -8
0 -9 -14 -6 -12 4 -22 3 -22 0 1 -13 25 -38 43 -45 15 -6 17 -3 12 16 -3 13 5
6 20 -18 52 -81 139 -278 127 -289 -13 -14 -31 -3 -62 40 -40 52 -93 83 -119
67 -27 -17 -26 -140 3 -255 39 -153 67 -179 125 -113 17 19 35 35 41 35 5 0
10 5 10 11 0 5 -5 7 -10 4 -7 -4 -8 3 -4 22 10 43 19 46 48 21 30 -26 44 -78
66 -253 8 -55 15 -94 18 -87 5 17 -15 189 -29 255 -6 26 -9 50 -7 53 3 2 17 0
32 -5 17 -7 35 -7 51 -1 23 9 25 14 25 77 0 86 -26 235 -50 291 -30 68 -59 53
-101 -54 l-24 -61 -29 71 c-40 100 -117 259 -130 269 -8 6 -7 10 1 14 10 3 9
9 -3 20 -10 11 -13 25 -9 42 6 25 6 25 -8 6 -10 -13 -12 -25 -6 -37 21 -38 6
-26 -37 32 -35 46 -44 64 -35 73 14 14 15 47 1 47 -6 0 -13 -7 -16 -15 -7 -18
-40 -20 -47 -2 -3 6 -6 0 -6 -15 -1 -14 5 -28 12 -31 10 -4 10 -7 0 -18 -15
-15 -17 -43 -3 -34 6 3 10 1 10 -4 0 -6 7 -11 15 -11 8 0 15 5 15 11 0 5 5 7
11 4 6 -5 4 -12 -8 -20 -17 -13 -16 -13 7 -11 25 3 29 -9 21 -56 0 -5 -19 -8
-40 -8 -36 0 -40 -3 -44 -27 l-4 -28 -2 27 c-1 21 -9 29 -36 39 -42 15 -43 21
-10 43 20 13 25 25 25 56 0 22 -4 40 -10 40 -5 0 -10 18 -10 40 0 29 -4 40
-15 40 -10 0 -15 -10 -15 -27z m-100 -23 c0 -5 -4 -10 -10 -10 -5 0 -10 5 -10
10 0 6 5 10 10 10 6 0 10 -4 10 -10z m37 -46 c-9 -9 -27 6 -27 22 0 13 2 13
16 -1 9 -9 14 -18 11 -21z m59 -33 c-1 -16 -5 -33 -9 -37 -4 -4 -7 -12 -7 -18
0 -6 5 -4 10 4 5 8 10 11 10 5 0 -5 -4 -16 -9 -24 -7 -11 -10 -10 -15 5 -3 11
-5 21 -4 24 1 3 -4 16 -11 29 -11 19 -11 25 0 32 25 16 37 9 35 -20z"/>
<path d="M2825 3510 c4 -6 11 -8 16 -5 14 9 11 15 -7 15 -8 0 -12 -5 -9 -10z"/>
<path d="M2970 3476 c0 -7 11 -16 25 -18 30 -6 33 7 6 22 -26 13 -31 13 -31
-4z"/>
<path d="M2467 3463 c-13 -12 -7 -25 9 -19 13 5 15 1 10 -20 -6 -24 -6 -25 9
-11 13 14 14 20 3 37 -14 21 -20 24 -31 13z"/>
<path d="M1471 3411 c-12 -16 -21 -33 -21 -37 0 -4 11 7 25 26 14 19 25 35 25
37 0 9 -11 0 -29 -26z"/>
<path d="M2880 3430 c0 -3 11 -15 24 -27 l24 -23 16 25 c22 33 20 42 -4 20
-11 -10 -23 -15 -27 -11 -4 4 -1 11 6 16 10 5 6 8 -12 7 -15 -1 -27 -4 -27 -7z"/>
<path d="M2984 3423 c-3 -10 -10 -26 -15 -36 -11 -20 -4 -37 15 -37 8 0 16 12
18 28 3 15 9 35 13 45 5 12 3 17 -9 17 -9 0 -19 -8 -22 -17z"/>
<path d="M2900 3300 c0 -5 5 -10 10 -10 6 0 10 5 10 10 0 6 -4 10 -10 10 -5 0
-10 -4 -10 -10z"/>
<path d="M2941 3182 c-10 -18 -9 -23 4 -28 23 -9 30 2 18 28 l-10 23 -12 -23z"/>
<path d="M2976 3178 c4 -13 7 -32 7 -43 -1 -11 1 -14 4 -7 4 10 8 10 20 0 11
-9 9 0 -6 30 -23 45 -37 56 -25 20z"/>
<path d="M2840 3168 c1 -16 37 -64 44 -58 7 7 -25 70 -35 70 -5 0 -9 -6 -9
-12z"/>
<path d="M1172 2878 c-7 -7 -12 -28 -12 -47 0 -24 -3 -31 -9 -22 -5 8 -11 9
-15 3 -3 -5 1 -15 9 -22 17 -14 17 -14 33 58 11 47 11 47 -6 30z"/>
<path d="M3110 2735 c0 -8 2 -15 4 -15 2 0 6 7 10 15 3 8 1 15 -4 15 -6 0 -10
-7 -10 -15z"/>
<path d="M830 2698 c-5 -13 -9 -19 -9 -14 -1 16 -55 -74 -100 -169 -41 -85
-111 -276 -111 -299 1 -6 18 34 38 89 75 197 113 272 135 258 6 -3 7 -1 3 6
-10 15 3 53 15 46 5 -4 9 -2 9 4 0 5 -5 11 -10 13 -6 2 3 18 20 36 16 18 30
37 30 43 0 16 -10 9 -20 -13z"/>
<path d="M1280 2625 c0 -8 5 -15 10 -15 6 0 10 7 10 15 0 8 -4 15 -10 15 -5 0
-10 -7 -10 -15z"/>
<path d="M1270 2577 c0 -14 5 -29 10 -32 7 -4 8 3 4 22 -9 38 -14 42 -14 10z"/>
<path d="M1786 2569 c-8 -42 0 -50 9 -9 4 17 5 34 2 36 -2 3 -7 -10 -11 -27z"/>
<path d="M1274 2295 c0 -82 2 -115 3 -72 2 43 2 110 0 150 -1 40 -3 5 -3 -78z"/>
<path d="M2208 2412 c-5 -19 44 -229 67 -284 4 -10 3 -18 -3 -18 -6 0 -8 -9
-5 -20 3 -11 10 -20 17 -20 6 0 35 -47 65 -105 30 -57 65 -117 78 -132 l23
-28 -16 39 c-8 21 -19 46 -24 55 -22 38 -70 155 -66 158 2 3 31 -12 63 -32
l58 -36 -40 35 c-22 20 -52 41 -67 47 -21 8 -33 27 -52 78 -45 119 -57 155
-75 221 -13 51 -19 60 -23 42z"/>
<path d="M2732 2380 c0 -14 2 -19 5 -12 2 6 2 18 0 25 -3 6 -5 1 -5 -13z"/>
<path d="M3222 2205 c-1 -97 -8 -240 -16 -318 -26 -253 -36 -361 -36 -405 0
-24 -4 -41 -8 -38 -4 2 -6 -10 -4 -28 7 -58 -17 -352 -38 -472 -30 -169 -80
-311 -147 -419 -122 -195 -261 -383 -328 -445 -15 -14 -36 -38 -47 -55 -11
-17 8 -1 43 35 77 79 139 147 159 177 8 11 36 51 63 88 26 36 47 68 47 70 0 3
21 35 46 72 48 69 104 178 104 201 0 15 8 15 100 -2 41 -8 126 -20 189 -27 85
-9 107 -15 90 -21 -13 -5 -32 -8 -44 -7 -30 3 -55 -11 -55 -31 0 -21 -42 -38
-109 -44 -24 -2 -46 -8 -50 -13 -3 -5 -14 -12 -23 -16 -11 -4 -18 -17 -18 -30
0 -33 -33 -73 -67 -82 -15 -3 -42 -13 -61 -21 -29 -12 -32 -16 -22 -29 10 -12
9 -16 -4 -21 -12 -5 -15 -14 -11 -33 3 -15 0 -40 -7 -57 -17 -38 -64 -111 -78
-119 -5 -3 -10 -13 -10 -22 0 -9 -9 -26 -20 -38 -29 -30 -17 -55 26 -55 31 0
34 3 34 28 0 30 31 68 44 55 4 -5 6 -3 5 2 -2 6 3 27 10 47 7 21 10 42 7 46
-7 11 16 72 26 72 4 0 8 9 8 19 0 11 5 23 11 26 6 4 8 14 5 22 -4 9 1 17 14
20 11 3 20 12 20 19 0 8 4 14 10 14 17 0 91 73 101 98 7 17 14 22 26 18 9 -4
20 -2 24 5 9 16 102 40 176 46 54 4 69 1 129 -27 84 -40 188 -142 226 -220 29
-61 73 -194 84 -252 4 -24 12 -38 21 -38 10 0 12 6 8 23 -57 189 -71 230 -105
294 -17 32 -56 82 -88 111 -56 53 -207 151 -233 153 -8 0 -4 4 9 9 26 11 29
45 5 55 -10 4 -49 8 -87 10 -58 3 -71 8 -85 27 -9 13 -15 27 -13 31 1 5 -2 6
-7 3 -12 -8 -77 84 -73 103 2 7 -1 10 -6 7 -12 -7 -55 91 -46 105 9 15 12 46
25 244 6 99 14 187 16 195 5 12 49 -136 69 -230 3 -14 12 -39 20 -57 8 -17 14
-37 14 -45 0 -23 56 -175 94 -254 20 -42 36 -80 36 -85 0 -5 5 -9 10 -9 6 0
10 5 10 10 0 10 -32 90 -65 165 -31 69 -130 406 -156 530 -20 97 -25 211 -9
235 7 11 10 -2 11 -45 l1 -60 10 53 c8 43 7 57 -5 70 -16 18 -19 92 -4 92 5 0
7 -13 4 -30 -4 -17 -2 -30 3 -30 6 0 11 19 11 43 1 23 3 34 6 25 5 -19 18 -24
27 -9 3 4 17 6 32 3 22 -4 25 -2 21 14 -10 32 -37 212 -37 244 0 32 -16 41
-23 13 -3 -13 -5 -12 -6 5 0 13 -5 20 -11 17 -5 -3 -10 1 -10 10 0 13 4 14 20
5 18 -10 19 -8 15 36 -3 26 -10 74 -16 108 -6 34 -15 87 -19 119 -4 32 -10 61
-13 63 -3 3 -5 -74 -5 -171z m38 -85 c0 -22 -3 -40 -8 -40 -4 0 -6 18 -4 40 2
22 6 40 8 40 2 0 4 -18 4 -40z m-15 -202 c-3 -24 -7 -67 -9 -96 -2 -29 -7 -56
-11 -60 -8 -7 0 111 11 166 9 47 16 39 9 -10z m35 16 c0 -14 -4 -23 -10 -19
-5 3 -10 15 -10 26 0 10 5 19 10 19 6 0 10 -12 10 -26z m1 -103 c7 11 9 9 9
-9 0 -13 -4 -21 -9 -17 -5 3 -12 -7 -14 -22 -2 -16 -4 1 -4 37 0 36 2 50 4 31
3 -26 7 -31 14 -20z m-127 -1047 c14 -25 23 -51 19 -57 -3 -6 -1 -7 6 -3 6 4
25 -6 43 -25 24 -24 27 -30 13 -26 -11 3 -44 9 -72 12 -40 5 -53 11 -53 23 0
15 -2 15 -11 2 -8 -11 -9 -8 -4 15 11 54 26 105 30 105 2 0 15 -21 29 -46z
m-182 -621 c-6 -3 -9 -10 -6 -15 4 -7 2 -8 -5 -4 -9 6 -9 11 0 22 6 8 15 12
18 8 3 -4 0 -9 -7 -11z m-13 -54 c-5 -10 -15 -19 -21 -19 -9 0 -9 3 -1 11 6 6
9 18 6 25 -4 10 0 12 11 8 12 -5 13 -10 5 -25z"/>
<path d="M1751 2283 c-17 -120 -24 -430 -13 -528 l9 -80 2 70 2 70 14 -50 c19
-69 32 -102 44 -109 6 -4 4 9 -4 28 -25 60 -55 255 -55 360 0 56 5 150 10 210
6 60 9 110 7 113 -2 2 -10 -36 -16 -84z"/>
<path d="M1981 2324 c0 -11 3 -14 6 -6 3 7 2 16 -1 19 -3 4 -6 -2 -5 -13z"/>
<path d="M2742 2310 c0 -14 2 -19 5 -12 2 6 2 18 0 25 -3 6 -5 1 -5 -13z"/>
<path d="M2743 2200 c0 -25 2 -35 4 -22 2 12 2 32 0 45 -2 12 -4 2 -4 -23z"/>
<path d="M342 2170 c0 -19 2 -27 5 -17 2 9 2 25 0 35 -3 9 -5 1 -5 -18z"/>
<path d="M2981 2174 c0 -11 3 -14 6 -6 3 7 2 16 -1 19 -3 4 -6 -2 -5 -13z"/>
<path d="M1200 2174 c0 -4 16 -21 36 -38 l36 -31 14 -145 c15 -152 38 -266 29
-140 l-4 65 21 -30 c26 -35 99 -105 110 -105 5 0 -11 19 -33 42 -61 63 -96
132 -109 212 -7 39 -13 80 -16 92 -3 19 -84 94 -84 78z"/>
<path d="M342 2110 c0 -14 2 -19 5 -12 2 6 2 18 0 25 -3 6 -5 1 -5 -13z"/>
<path d="M2178 2123 c7 -3 16 -2 19 1 4 3 -2 6 -13 5 -11 0 -14 -3 -6 -6z"/>
<path d="M2228 2113 c7 -3 16 -2 19 1 4 3 -2 6 -13 5 -11 0 -14 -3 -6 -6z"/>
<path d="M2961 2094 c0 -11 3 -14 6 -6 3 7 2 16 -1 19 -3 4 -6 -2 -5 -13z"/>
<path d="M2183 2083 c15 -2 39 -2 55 0 15 2 2 4 -28 4 -30 0 -43 -2 -27 -4z"/>
<path d="M331 2053 c0 -25 1 -26 9 -8 12 27 12 35 0 35 -5 0 -10 -12 -9 -27z"/>
<path d="M2947 2051 c-4 -17 -3 -21 5 -13 5 5 8 16 6 23 -3 8 -7 3 -11 -10z"/>
<path d="M2921 1974 c-7 -20 -11 -38 -8 -40 3 -3 10 11 17 31 16 47 8 55 -9 9z"/>
<path d="M2515 1940 c10 -11 20 -20 23 -20 3 0 -3 9 -13 20 -10 11 -20 20 -23
20 -3 0 3 -9 13 -20z"/>
<path d="M596 1774 c-9 -23 -7 -57 4 -74 7 -11 9 0 8 38 -1 56 -2 61 -12 36z"/>
<path d="M1460 1736 c0 -3 9 -10 20 -16 11 -6 20 -8 20 -6 0 3 -9 10 -20 16
-11 6 -20 8 -20 6z"/>
<path d="M1668 1716 c-5 -23 0 -34 26 -57 17 -16 37 -29 44 -29 8 0 0 12 -17
26 -17 14 -35 40 -39 57 l-8 32 -6 -29z"/>
<path d="M576 1701 c-4 -7 -5 -15 -2 -18 9 -9 19 4 14 18 -4 11 -6 11 -12 0z"/>
<path d="M1844 1655 c-7 -28 -10 -52 -9 -53 9 -10 26 43 23 71 -3 28 -4 27
-14 -18z"/>
<path d="M570 1585 c0 -8 5 -15 10 -15 6 0 10 7 10 15 0 8 -4 15 -10 15 -5 0
-10 -7 -10 -15z"/>
<path d="M3106 1308 c-9 -29 -36 -123 -61 -208 -84 -287 -172 -493 -309 -728
-84 -146 -145 -231 -220 -309 -32 -35 -54 -63 -47 -63 23 0 394 384 448 463
53 78 117 201 134 260 15 51 39 179 39 212 0 23 3 26 10 15 6 -10 8 -4 4 21
-4 21 -1 46 6 59 7 12 8 20 3 17 -12 -7 -5 209 9 261 16 62 2 63 -16 0z m-26
-273 c0 -16 -6 -25 -15 -25 -8 0 -15 -5 -15 -11 0 -5 5 -7 10 -4 6 3 10 -2 10
-12 0 -37 -30 -209 -42 -243 l-13 -36 -42 11 -43 10 18 30 c19 31 79 194 87
232 3 19 34 72 43 73 1 0 2 -11 2 -25z m-95 -348 c17 -5 31 -11 33 -12 6 -5
-50 -116 -84 -166 -53 -77 -271 -319 -287 -319 -3 0 21 39 53 88 66 99 220
393 220 418 0 11 5 14 18 9 9 -4 31 -12 47 -18z"/>
<path d="M3132 1280 c0 -19 2 -27 5 -17 2 9 2 25 0 35 -3 9 -5 1 -5 -18z"/>
<path d="M3561 1184 c0 -11 3 -14 6 -6 3 7 2 16 -1 19 -3 4 -6 -2 -5 -13z"/>
<path d="M1370 1142 c0 -19 12 -42 22 -42 14 0 5 43 -9 48 -7 2 -13 -1 -13 -6z"/>
<path d="M282 990 c0 -19 2 -27 5 -17 2 9 2 25 0 35 -3 9 -5 1 -5 -18z"/>
<path d="M2872 942 c-18 -31 -42 -72 -53 -89 -12 -18 -17 -33 -12 -33 14 0
110 167 101 176 -2 1 -18 -23 -36 -54z"/>
<path d="M3171 934 c0 -11 3 -14 6 -6 3 7 2 16 -1 19 -3 4 -6 -2 -5 -13z"/>
<path d="M3187 887 c-3 -8 -2 -20 3 -26 5 -9 8 -4 8 13 0 29 -3 32 -11 13z"/>
<path d="M2771 784 c-30 -38 -26 -55 4 -19 23 28 31 45 21 45 -3 0 -14 -12
-25 -26z"/>
<path d="M1330 769 c0 -8 9 -20 20 -27 11 -7 20 -8 20 -4 0 5 -9 17 -20 27
-15 14 -20 15 -20 4z"/>
<path d="M1670 749 c-31 -21 -37 -28 -20 -23 34 9 77 32 85 44 12 19 -20 9
-65 -21z"/>
<path d="M2725 720 c-3 -6 1 -7 9 -4 18 7 21 14 7 14 -6 0 -13 -4 -16 -10z"/>
<path d="M960 663 c13 -18 26 -30 29 -28 3 3 -8 18 -23 33 l-29 27 23 -32z"/>
<path d="M2683 658 c-44 -50 -312 -387 -355 -448 -62 -89 -120 -190 -115 -203
2 -6 20 18 40 54 41 73 140 208 307 419 122 154 188 249 123 178z"/>
<path d="M3238 563 c7 -3 16 -2 19 1 4 3 -2 6 -13 5 -11 0 -14 -3 -6 -6z"/>
<path d="M3831 532 c32 -51 96 -139 109 -147 19 -12 10 16 -17 53 -16 20 -30
39 -33 42 -4 3 -16 21 -28 42 -12 20 -29 39 -38 42 -12 5 -10 -3 7 -32z"/>
<path d="M3090 464 c0 -8 5 -12 10 -9 6 4 8 11 5 16 -9 14 -15 11 -15 -7z"/>
<path d="M3060 430 c0 -5 5 -10 11 -10 5 0 7 5 4 10 -3 6 -8 10 -11 10 -2 0
-4 -4 -4 -10z"/>
<path d="M3518 386 c-37 -19 -81 -46 -99 -60 -17 -14 -34 -26 -38 -26 -15 0
-182 -172 -238 -245 -23 -30 -30 -55 -15 -55 5 0 25 24 45 53 51 74 159 184
237 241 69 51 170 106 194 106 8 0 18 5 21 10 13 21 -43 9 -107 -24z"/>
<path d="M2092 353 c-16 -30 -61 -172 -77 -240 -21 -89 -20 -113 5 -113 17 0
20 7 20 43 0 54 35 237 55 284 16 38 14 58 -3 26z"/>
<path d="M390 353 c0 -23 57 -54 259 -141 19 -8 -17 44 -55 78 -20 19 -26 21
-21 8 5 -13 1 -18 -14 -18 -30 0 -142 48 -156 67 -7 9 -13 12 -13 6z"/>
<path d="M2283 328 c-36 -49 -149 -315 -139 -326 8 -8 8 -7 45 88 18 47 51
120 73 164 22 43 37 80 35 82 -2 3 -8 -1 -14 -8z"/>
<path d="M1970 309 c0 -5 5 -7 10 -4 6 3 10 8 10 11 0 2 -4 4 -10 4 -5 0 -10
-5 -10 -11z"/>
<path d="M1531 254 c0 -11 3 -14 6 -6 3 7 2 16 -1 19 -3 4 -6 -2 -5 -13z"/>
<path d="M2912 229 c2 -6 8 -10 13 -10 5 0 11 4 13 10 2 6 -4 11 -13 11 -9 0
-15 -5 -13 -11z"/>
<path d="M3901 195 c0 -5 6 -19 14 -29 8 -11 15 -15 15 -10 0 6 -7 19 -15 30
-8 10 -14 15 -14 9z"/>
<path d="M714 183 c4 -5 44 -47 88 -95 45 -49 88 -88 96 -88 8 0 -27 43 -79
95 -52 52 -98 95 -103 95 -5 0 -6 -3 -2 -7z"/>
<path d="M2890 174 c0 -8 5 -12 10 -9 6 3 10 10 10 16 0 5 -4 9 -10 9 -5 0
-10 -7 -10 -16z"/>
<path d="M352 118 c5 -14 98 -71 105 -64 3 2 -13 16 -35 30 -22 14 -43 30 -47
36 -9 14 -28 13 -23 -2z"/>
<path d="M1531 73 c31 -42 64 -73 76 -73 7 0 -7 20 -30 45 -43 44 -72 62 -46
28z"/>
<path d="M470 45 c0 -2 15 -12 33 -20 l32 -16 -25 20 c-24 20 -40 26 -40 16z"/>
<path d="M951 14 c0 -11 3 -14 6 -6 3 7 2 16 -1 19 -3 4 -6 -2 -5 -13z"/>
</g>
</svg>
